<svg width="24" height="24" viewBox="0 0 24 24" fill="none" xmlns="http://www.w3.org/2000/svg">
<path d="M23.9944 22.2977L22.1089 11.9097C22.0996 11.8584 22.079 11.8099 22.0487 11.7676C22.0184 11.7253 21.9791 11.6902 21.9336 11.6649L17.1879 9.0254C17.1274 8.99192 17.0583 8.97707 16.9894 8.98269L17.8528 20.1206L17.8239 20.1335L23.5034 22.6815C23.562 22.7078 23.6265 22.7176 23.6902 22.7099C23.7539 22.7021 23.8143 22.6771 23.8648 22.6376C23.9153 22.5981 23.9541 22.5456 23.9769 22.4857C23.9998 22.4258 24.0058 22.3608 23.9944 22.2977ZM12 11.5488L7.14636 9.02076C7.08901 8.99107 7.02458 8.97777 6.96017 8.98232C6.977 8.98129 6.99392 8.98138 7.0107 8.98269L6.14731 20.1206L11.8558 22.6815C11.9012 22.7019 11.9503 22.7124 12 22.7124V11.5488Z" fill="#44C868"/>
<path d="M7.01063 8.98285C6.94172 8.97723 6.87268 8.99207 6.81216 9.02551L2.0664 11.665C2.02089 11.6903 1.98157 11.7254 1.95126 11.7677C1.92095 11.81 1.90042 11.8586 1.89113 11.9098L0.00567783 22.2978C-0.00576468 22.3609 0.000252711 22.4259 0.0230796 22.4858C0.0459065 22.5457 0.0846746 22.5982 0.135193 22.6377C0.18572 22.6773 0.24608 22.7022 0.309761 22.71C0.373443 22.7177 0.438029 22.7079 0.496553 22.6816L6.14518 20.1475L7.01063 8.98285ZM16.9893 8.98262C16.942 8.9861 16.8958 8.99914 16.8537 9.02096L12 11.5489V22.7126H12.0001C12.0498 22.7126 12.0989 22.7021 12.1443 22.6817L17.8528 20.1207L16.9893 8.98262Z" fill="#4CE166"/>
<path d="M1.31972 15.0576L0.936707 17.1679L6.6083 14.1723L6.73997 12.4736L6.76182 12.1919L1.31972 15.0576Z" fill="#FFDB56"/>
<path d="M6.65935 13.5137L6.6083 14.1724L0.936709 17.168L0.00567783 22.2976C-0.00576468 22.3607 0.000252711 22.4257 0.0230796 22.4856C0.0459065 22.5456 0.0846746 22.5981 0.135193 22.6376C0.18572 22.6771 0.24608 22.7021 0.309761 22.7098C0.373443 22.7175 0.438029 22.7078 0.496553 22.6815L6.14518 20.1474L6.65935 13.5137Z" fill="#A8EEFC"/>
<path d="M12.0014 12.9412L6.76182 12.192L6.60831 14.1725L12 22.3605V19.3831L8.78265 14.317L12.0014 14.702V12.9412ZM21.56 11.4572L19.2802 10.1892L17.122 10.6935L17.149 11.0421L17.2556 12.4171L21.56 11.4572Z" fill="#FFBB24"/>
<path d="M17.447 14.8862L17.2426 12.2496L17.122 10.6934L12.0014 12.9411V14.7018L15.3462 13.2473L17.447 14.8862Z" fill="#FFDB56"/>
<path d="M23.9944 22.2976L23.5208 19.6883L17.2556 12.417L17.4471 14.8863L23.8722 22.631C23.9203 22.5913 23.957 22.5395 23.9785 22.4809C23.9999 22.4223 24.0054 22.359 23.9944 22.2976Z" fill="#FFBB24"/>
<path d="M12.0226 1.28735C9.30555 1.28735 7.09506 3.49601 7.09506 6.21082C7.09506 7.89017 7.89236 9.69317 9.46488 11.5697C10.6198 12.9479 11.7591 13.8344 11.807 13.8715C11.8687 13.9192 11.9446 13.9451 12.0226 13.9451C12.1006 13.9451 12.1765 13.9192 12.2382 13.8715C12.2861 13.8344 13.4254 12.9479 14.5803 11.5697C16.1529 9.69317 16.9502 7.89021 16.9502 6.21082C16.9501 3.49601 14.7396 1.28735 12.0226 1.28735ZM13.8474 6.21078C13.8474 7.21774 13.0304 8.03412 12.0226 8.03412C11.0147 8.03412 10.1977 7.21779 10.1977 6.21078C10.1977 5.20376 11.0147 4.38743 12.0226 4.38743C13.0304 4.38743 13.8474 5.20381 13.8474 6.21078Z" fill="#FF4A4A"/>
<path d="M12.0226 1.28735C11.8072 1.28735 11.5951 1.30132 11.387 1.32823C13.8049 1.64074 15.679 3.71117 15.679 6.21082C15.679 7.89017 14.8817 9.69317 13.3092 11.5697C12.5664 12.456 11.8307 13.1384 11.387 13.5229C11.6333 13.7363 11.79 13.8582 11.807 13.8715C11.8687 13.9192 11.9446 13.9451 12.0226 13.9451C12.1006 13.9451 12.1765 13.9192 12.2382 13.8715C12.2861 13.8344 13.4254 12.9479 14.5804 11.5697C16.1529 9.69317 16.9502 7.89021 16.9502 6.21082C16.9501 3.49601 14.7396 1.28735 12.0226 1.28735Z" fill="#E7343F"/>
<path d="M12.1443 22.6815L14.267 21.7292L12 19.3831V22.7124H12.0001C12.0498 22.7124 12.099 22.7019 12.1443 22.6815Z" fill="#FFDB56"/>
<path d="M22.1088 11.9096C22.0995 11.8583 22.079 11.8098 22.0487 11.7675C22.0184 11.7252 21.979 11.6901 21.9335 11.6648L21.5599 11.457L17.2556 12.4169L23.5207 19.6882L22.1088 11.9096ZM12 22.7123C12 22.7123 12 22.7123 12 22.7123V22.3604L6.60833 14.1723L6.14722 20.1205L11.8557 22.6815C11.9011 22.7018 11.9502 22.7123 12 22.7123Z" fill="#1EA4E9"/>
</svg>
