<svg width="34" height="58" viewBox="0 0 34 58" fill="none" xmlns="http://www.w3.org/2000/svg">
<path d="M31.4 0.839844H2.60004C1.1882 0.839844 0.0400391 1.988 0.0400391 3.39984V54.5998C0.0400391 56.0117 1.1882 57.1598 2.60004 57.1598H31.4C32.8119 57.1598 33.96 56.0117 33.96 54.5998V3.39984C33.96 1.98864 32.8119 0.839844 31.4 0.839844ZM32.04 54.5998C32.04 54.7696 31.9726 54.9324 31.8526 55.0524C31.7326 55.1724 31.5698 55.2398 31.4 55.2398H2.60004C2.2474 55.2398 1.96004 54.9531 1.96004 54.5998V3.39984C1.96004 3.0472 2.2474 2.75984 2.60004 2.75984H31.4C31.7533 2.75984 32.04 3.0472 32.04 3.39984V54.5998Z" fill="black"/>
<path d="M3.24005 45.9599H30.76V7.23986H3.24005V45.9599ZM5.16005 9.15986H28.84V44.0399H5.16005V9.15986ZM12.2001 5.95986H21.8001C21.9261 5.95986 22.051 5.93503 22.1674 5.88678C22.2839 5.83854 22.3897 5.76782 22.4789 5.67868C22.568 5.58953 22.6387 5.4837 22.687 5.36723C22.7352 5.25076 22.7601 5.12593 22.7601 4.99986C22.7601 4.87379 22.7352 4.74895 22.687 4.63248C22.6387 4.51601 22.568 4.41018 22.4789 4.32103C22.3897 4.23189 22.2839 4.16118 22.1674 4.11293C22.051 4.06469 21.9261 4.03986 21.8001 4.03986H12.2001C12.074 4.03986 11.9491 4.06469 11.8327 4.11293C11.7162 4.16118 11.6104 4.23189 11.5212 4.32103C11.4321 4.41018 11.3614 4.51601 11.3131 4.63248C11.2649 4.74895 11.2401 4.87379 11.2401 4.99986C11.2401 5.12593 11.2649 5.25076 11.3131 5.36723C11.3614 5.4837 11.4321 5.58953 11.5212 5.67868C11.6104 5.76782 11.7162 5.83854 11.8327 5.88678C11.9491 5.93503 12.074 5.95986 12.2001 5.95986ZM17.0001 48.8399C15.5882 48.8399 14.4401 49.988 14.4401 51.3999C14.4401 52.8117 15.5882 53.9599 17.0001 53.9599C18.4119 53.9599 19.5601 52.8117 19.5601 51.3999C19.5601 49.988 18.4119 48.8399 17.0001 48.8399ZM17.0001 52.0399C16.8353 52.0325 16.6797 51.9618 16.5657 51.8426C16.4517 51.7234 16.388 51.5648 16.388 51.3999C16.388 51.2349 16.4517 51.0763 16.5657 50.9571C16.6797 50.8379 16.8353 50.7672 17.0001 50.7599C17.1648 50.7672 17.3204 50.8379 17.4344 50.9571C17.5484 51.0763 17.6121 51.2349 17.6121 51.3999C17.6121 51.5648 17.5484 51.7234 17.4344 51.8426C17.3204 51.9618 17.1648 52.0325 17.0001 52.0399Z" fill="black"/>
<path d="M12.8791 20.0789C12.9707 19.9903 13.0439 19.8844 13.0942 19.7673C13.1445 19.6501 13.171 19.5242 13.1721 19.3967C13.1732 19.2692 13.1489 19.1428 13.1006 19.0248C13.0524 18.9069 12.9811 18.7997 12.891 18.7095C12.8008 18.6194 12.6936 18.5481 12.5757 18.4998C12.4577 18.4516 12.3313 18.4273 12.2038 18.4284C12.0763 18.4295 11.9504 18.456 11.8332 18.5063C11.7161 18.5566 11.6102 18.6297 11.5216 18.7214L9.4525 20.7899C8.97335 21.2704 8.70428 21.9213 8.70428 22.5998C8.70428 23.2784 8.97335 23.9293 9.4525 24.4097L11.521 26.4782C11.7085 26.6657 11.9543 26.7592 12.2 26.7592C12.4458 26.7592 12.6915 26.6657 12.8791 26.4782C13.059 26.2982 13.1601 26.0541 13.1601 25.7995C13.1601 25.545 13.059 25.3008 12.8791 25.1208L10.8106 23.0523C10.6906 22.9323 10.6232 22.7695 10.6232 22.5998C10.6232 22.4301 10.6906 22.2674 10.8106 22.1473L12.8791 20.0789ZM22.4791 18.7208C22.3905 18.6291 22.2846 18.556 22.1674 18.5057C22.0503 18.4553 21.9243 18.4289 21.7969 18.4277C21.6694 18.4266 21.543 18.4509 21.425 18.4992C21.307 18.5475 21.1999 18.6188 21.1097 18.7089C21.0196 18.799 20.9483 18.9062 20.9 19.0242C20.8518 19.1422 20.8275 19.2686 20.8286 19.3961C20.8297 19.5235 20.8562 19.6495 20.9065 19.7666C20.9568 19.8837 21.0299 19.9897 21.1216 20.0782L23.1901 22.1473C23.3098 22.2664 23.3751 22.427 23.3751 22.5992C23.3751 22.7713 23.3091 22.9326 23.1901 23.0523L21.1216 25.1208C20.9416 25.3009 20.8405 25.5451 20.8406 25.7997C20.8406 26.0544 20.9418 26.2985 21.1219 26.4785C21.302 26.6586 21.5463 26.7596 21.8009 26.7596C22.0555 26.7595 22.2997 26.6583 22.4797 26.4782L24.5488 24.4091C24.7868 24.1718 24.9753 23.8896 25.1035 23.5789C25.2317 23.2683 25.297 22.9353 25.2957 22.5992C25.297 22.2631 25.2316 21.93 25.1033 21.6193C24.9749 21.3087 24.7863 21.0265 24.5482 20.7893L22.4791 18.7208ZM18.904 16.8891C18.7844 16.8488 18.6581 16.8326 18.5322 16.8414C18.4063 16.8502 18.2834 16.8837 18.1706 16.9402C18.0578 16.9966 17.9572 17.0748 17.8747 17.1703C17.7922 17.2658 17.7294 17.3766 17.6899 17.4965L14.4899 27.0965C14.4459 27.217 14.4265 27.3452 14.4329 27.4734C14.4393 27.6016 14.4713 27.7273 14.5271 27.8429C14.5829 27.9585 14.6613 28.0617 14.7577 28.1465C14.854 28.2313 14.9664 28.2959 15.0882 28.3365C15.21 28.3771 15.3387 28.3928 15.4667 28.3828C15.5946 28.3728 15.7193 28.3372 15.8333 28.2781C15.9473 28.2191 16.0482 28.1378 16.1303 28.039C16.2123 27.9403 16.2736 27.8261 16.3107 27.7032L19.5107 18.1032C19.5912 17.8617 19.5725 17.5982 19.4587 17.3705C19.3449 17.1429 19.1454 16.9697 18.904 16.8891Z" fill="black"/>
</svg>
